<mxfile host="app.diagrams.net" modified="2023-06-13T20:42:08.531Z" agent="Mozilla/5.0 (Windows NT 10.0; Win64; x64) AppleWebKit/537.36 (KHTML, like Gecko) Chrome/114.0.0.0 Safari/537.36" etag="_EFJ9W3aWtZ6U0AgnCDV" version="21.3.8" type="device">
  <diagram name="Page-1" id="guaCBBF4xg1Rw7isNIAX">
    <mxGraphModel dx="1688" dy="642" grid="1" gridSize="10" guides="1" tooltips="1" connect="1" arrows="1" fold="1" page="1" pageScale="1" pageWidth="850" pageHeight="1100" math="0" shadow="0">
      <root>
        <mxCell id="0" />
        <mxCell id="1" parent="0" />
      </root>
    </mxGraphModel>
  </diagram>
</mxfile>
